<?xml version="1.0" standalone="no"?>
<!DOCTYPE svg PUBLIC "-//W3C//DTD SVG 20010904//EN"
 "http://www.w3.org/TR/2001/REC-SVG-20010904/DTD/svg10.dtd">
<svg version="1.0" xmlns="http://www.w3.org/2000/svg"
 width="200.000000pt" height="200.000000pt" viewBox="0 0 200.000000 200.000000"
 preserveAspectRatio="xMidYMid meet">
<metadata>
Created by potrace 1.11, written by Peter Selinger 2001-2013
</metadata>
<g transform="translate(0.000000,200.000000) scale(0.100000,-0.100000)"
fill="#000000" stroke="none">
<path d="M792 1709 c-99 -21 -212 -62 -305 -112 l-58 -30 268 -272 c147 -150
271 -273 276 -273 4 -1 7 46 7 105 l0 108 -132 132 c-73 73 -130 135 -127 137
11 11 128 37 192 43 l67 6 0 88 0 89 -47 -1 c-27 0 -90 -9 -141 -20z"/>
<path d="M1040 1643 l0 -90 68 -6 c186 -18 386 -110 531 -246 l54 -50 -7 -98
c-13 -201 -70 -390 -161 -541 l-53 -87 61 -63 62 -63 23 28 c41 50 105 166
144 260 66 159 108 375 108 556 l0 77 -83 83 c-182 182 -434 303 -674 324
l-73 6 0 -90z"/>
<path d="M297 1466 c-35 -30 -84 -78 -107 -106 l-43 -51 6 -132 c10 -209 48
-372 128 -546 116 -251 337 -475 589 -595 110 -53 110 -53 110 52 l0 89 -62
33 c-344 179 -559 525 -584 941 l-7 106 74 63 c41 34 78 67 84 71 9 9 -100
129 -117 129 -4 0 -36 -24 -71 -54z"/>
<path d="M1187 1253 l2 -227 -67 67 c-37 37 -71 67 -75 67 -4 0 -7 -46 -7
-103 l0 -102 160 -160 160 -160 -2 399 -3 399 -69 24 c-111 37 -101 56 -99
-204z"/>
<path d="M650 863 l0 -391 77 -71 c42 -39 82 -71 87 -71 8 0 10 81 8 260 -2
143 -1 260 3 260 3 0 35 -31 71 -70 37 -38 71 -70 75 -70 5 0 9 48 9 108 l0
107 -165 165 -165 165 0 -392z"/>
<path d="M1040 743 l0 -106 139 -139 139 -138 -36 -31 c-43 -38 -119 -87 -189
-123 l-53 -26 0 -90 c0 -83 2 -90 20 -90 28 0 193 87 272 143 80 57 218 184
218 201 0 12 -490 506 -503 506 -4 0 -7 -48 -7 -107z"/>
</g>
</svg>
